<svg fill="#FFFFFF" xmlns="http://www.w3.org/2000/svg"  viewBox="0 0 50 50" width="50px" height="50px"><path d="M 15.214844 7.3066406 C 14.787844 7.3066406 13.607641 7.2999844 11.431641 7.9589844 C 9.2796406 8.6109844 8.2147344 10.025734 8.0527344 10.677734 C 8.0077385 10.859384 8.0372958 11.126111 8.0742188 11.351562 C 6.7341402 12.713032 5.7759265 14.505111 5.0410156 16.726562 C 1.7155852 26.776687 0 30.656586 0 35.369141 C 0 40.501917 5.5878906 42.912109 5.5878906 42.912109 A 1.0001 1.0001 0 0 0 6.7070312 42.707031 L 13.904297 35.509766 C 14.871001 34.543061 16.182733 34 17.550781 34 L 32.449219 34 C 33.817267 34 35.127598 34.542499 36.095703 35.509766 L 43.292969 42.707031 A 1.0001 1.0001 0 0 0 44.412109 42.912109 C 44.412109 42.912109 50 40.501917 50 35.369141 C 50 30.656586 48.284415 26.776686 44.958984 16.726562 C 44.224074 14.505111 43.26586 12.713032 41.925781 11.351562 C 41.962704 11.126111 41.992262 10.859384 41.947266 10.677734 C 41.785266 10.025734 40.720359 8.6109844 38.568359 7.9589844 C 36.392359 7.2999844 35.212156 7.3066406 34.785156 7.3066406 C 34.013744 7.3066406 33.944098 7.7448429 33.134766 8.0878906 C 32.273756 8.0300429 31.362932 8 30.382812 8 L 19.617188 8 C 18.637068 8 17.726244 8.0300429 16.865234 8.0878906 C 16.055902 7.7448429 15.986256 7.3066406 15.214844 7.3066406 z M 19.617188 10 L 30.382812 10 C 34.510672 10 37.236364 10.521048 39.097656 11.636719 C 40.958948 12.75239 42.111744 14.487473 43.060547 17.355469 C 46.401116 27.451345 48 31.151696 48 35.369141 C 48 38.532406 44.966006 40.268989 44.130859 40.716797 L 37.509766 34.095703 C 36.16787 32.75497 34.347171 32 32.449219 32 L 17.550781 32 C 15.652829 32 13.83153 32.754408 12.490234 34.095703 L 5.8691406 40.716797 C 5.0339937 40.268989 2 38.532406 2 35.369141 C 2 31.151696 3.5988836 27.451345 6.9394531 17.355469 C 7.8882564 14.487473 9.0410512 12.75239 10.902344 11.636719 C 12.763636 10.521048 15.489328 10 19.617188 10 z M 25 11 A 2 2 0 0 0 25 15 A 2 2 0 0 0 25 11 z M 36.5 13 A 1.5 1.5 0 0 0 36.5 16 A 1.5 1.5 0 0 0 36.5 13 z M 13 15 A 3 3 0 0 0 13 21 A 3 3 0 0 0 13 15 z M 33.5 16 A 1.5 1.5 0 0 0 33.5 19 A 1.5 1.5 0 0 0 33.5 16 z M 39.5 16 A 1.5 1.5 0 0 0 39.5 19 A 1.5 1.5 0 0 0 39.5 16 z M 21 17 A 1 1 0 0 0 21 19 A 1 1 0 0 0 21 17 z M 29 17 A 1 1 0 0 0 29 19 A 1 1 0 0 0 29 17 z M 24 19 C 23.448 19 23 19.448 23 20 C 23 20.552 23.448 21 24 21 L 26 21 C 26.552 21 27 20.552 27 20 C 27 19.448 26.552 19 26 19 L 24 19 z M 36.5 19 A 1.5 1.5 0 0 0 36.5 22 A 1.5 1.5 0 0 0 36.5 19 z M 31 22 A 3 3 0 0 0 31 28 A 3 3 0 0 0 31 22 z M 18.5 23 A 3.5 3.5 0 1 0 18.5 30 A 3.5 3.5 0 1 0 18.5 23 z"/></svg>