<?xml version="1.0" standalone="no"?>
<!DOCTYPE svg PUBLIC "-//W3C//DTD SVG 20010904//EN"
 "http://www.w3.org/TR/2001/REC-SVG-20010904/DTD/svg10.dtd">
<svg version="1.0" xmlns="http://www.w3.org/2000/svg"
 width="564.000000pt" height="562.000000pt" viewBox="0 0 564.000000 562.000000"
 preserveAspectRatio="xMidYMid meet">
<metadata>
Created by potrace 1.16, written by Peter Selinger 2001-2019
</metadata>
<g transform="translate(0.000000,562.000000) scale(0.100000,-0.100000)"
fill="white" stroke="none">
<path d="M0 2810 l0 -2810 2820 0 2820 0 0 2810 0 2810 -2820 0 -2820 0 0
-2810z m2780 2588 c0 -7 0 -175 1 -372 l0 -359 -28 -30 c-15 -16 -276 -277
-578 -581 -542 -542 -622 -627 -700 -736 -85 -117 -195 -347 -226 -470 -52
-210 -67 -377 -51 -577 9 -122 20 -186 51 -313 15 -60 60 -171 106 -265 77
-157 160 -270 295 -406 136 -137 200 -187 335 -266 25 -14 143 -73 170 -83
140 -58 152 -61 300 -95 159 -37 453 -41 615 -9 158 31 302 80 432 146 57 29
108 56 113 60 6 5 50 36 99 71 138 96 296 257 390 397 59 87 176 318 176 346
0 6 7 25 15 40 8 16 15 37 15 46 0 9 4 27 9 40 13 34 39 161 51 253 18 143 9
347 -22 475 -6 25 -13 59 -15 75 -2 17 -8 39 -12 50 -5 11 -16 47 -26 80 -24
78 -111 263 -160 340 -47 73 -153 211 -189 244 -14 14 -26 30 -26 37 0 13 357
374 370 374 14 0 142 -144 214 -240 77 -103 140 -209 203 -340 58 -122 68
-145 98 -240 16 -47 31 -94 35 -105 38 -105 80 -407 80 -571 -1 -141 -34 -427
-59 -506 -5 -18 -18 -64 -27 -101 -10 -37 -21 -70 -26 -73 -4 -3 -8 -14 -8
-24 0 -11 -7 -36 -16 -57 -9 -21 -20 -47 -24 -58 -31 -79 -128 -267 -167 -322
-13 -17 -23 -34 -23 -37 0 -9 -71 -105 -141 -191 -64 -78 -227 -240 -304 -301
-27 -21 -52 -42 -55 -45 -18 -20 -266 -173 -340 -209 -112 -55 -286 -122 -360
-140 -19 -5 -64 -16 -100 -25 -36 -8 -94 -20 -130 -25 -36 -5 -94 -14 -130
-20 -84 -13 -365 -12 -455 1 -38 5 -97 14 -130 19 -33 4 -89 15 -125 24 -36 9
-81 21 -100 25 -45 11 -155 49 -197 67 -18 8 -50 21 -70 30 -132 55 -269 132
-393 223 -370 268 -641 633 -779 1051 -50 149 -60 191 -95 395 -31 173 -16
587 25 721 5 17 9 37 9 46 0 15 12 60 46 173 9 28 19 59 24 70 4 11 15 40 25
65 18 46 116 250 138 285 58 95 129 199 180 263 58 74 1644 1671 1660 1672 4
0 7 -6 7 -12z m840 -841 c84 -30 131 -71 167 -146 90 -185 -46 -401 -252 -401
-131 0 -240 90 -274 228 -30 123 55 271 183 318 43 16 134 16 176 1z"/>
</g>
</svg>
