<svg fill="#FFFFFF" xmlns="http://www.w3.org/2000/svg"  viewBox="0 0 24 24" width="24px" height="24px"><path d="M 12 0.0390625 C 8.5 0.0390625 5 0.859 5 2.5 L 5 6.5 L 5 10.5 L 5 14.5 C 5 14.887 5.1993906 15.450359 6.1503906 15.943359 C 6.2243906 15.981359 6.3028594 16 6.3808594 16 C 6.5618594 16 6.7342187 15.902469 6.8242188 15.730469 C 6.9512187 15.485469 6.854375 15.183641 6.609375 15.056641 C 6.127375 14.806641 6 14.583 6 14.5 L 6 11.828125 C 7.2861168 12.595196 9.6391542 13 12 13 C 14.360846 13 16.713883 12.595196 18 11.828125 L 18 14.5 C 18 14.611 17.82125 14.877828 17.15625 15.173828 C 16.90425 15.285828 16.790344 15.580031 16.902344 15.832031 C 16.985344 16.019031 17.168375 16.130859 17.359375 16.130859 C 17.428375 16.130859 17.4965 16.116891 17.5625 16.087891 C 18.7505 15.559891 19 14.933 19 14.5 L 19 10.5 L 19 6.5 L 19 2.5 C 19 0.859 15.5 0.0390625 12 0.0390625 z M 12 1 C 15.722 1 18 1.971 18 2.5 C 18 3.029 15.722 4 12 4 C 8.278 4 6 3.029 6 2.5 C 6 1.971 8.278 1 12 1 z M 6 3.828125 C 7.2861168 4.5951962 9.6391542 5 12 5 C 14.360846 5 16.713883 4.5951962 18 3.828125 L 18 6.5 C 18 7.029 15.722 8 12 8 C 8.278 8 6 7.029 6 6.5 L 6 3.828125 z M 6 7.828125 C 7.2861168 8.5951962 9.6391542 9 12 9 C 14.360846 9 16.713883 8.5951962 18 7.828125 L 18 10.5 C 18 11.029 15.722 12 12 12 C 8.278 12 6 11.029 6 10.5 L 6 7.828125 z M 5.75 18 C 4.785 18 4 18.785 4 19.75 C 4 20.715 4.785 21.5 5.75 21.5 L 6.25 21.5 C 6.663 21.5 7 21.836 7 22.25 C 7 22.664 6.663 23 6.25 23 L 4.5 23 C 4.224 23 4 23.224 4 23.5 C 4 23.776 4.224 24 4.5 24 L 6.25 24 C 7.215 24 8 23.215 8 22.25 C 8 21.285 7.215 20.5 6.25 20.5 L 5.75 20.5 C 5.337 20.5 5 20.164 5 19.75 C 5 19.336 5.337 19 5.75 19 L 7.5 19 C 7.776 19 8 18.776 8 18.5 C 8 18.224 7.776 18 7.5 18 L 5.75 18 z M 11.5 18 C 10.673 18 10 18.673 10 19.5 L 10 22.5 C 10 23.327 10.673 24 11.5 24 L 12.5 24 C 12.730812 24 12.947041 23.943172 13.142578 23.849609 L 13.146484 23.853516 C 13.244484 23.950516 13.372 24 13.5 24 C 13.628 24 13.756516 23.950516 13.853516 23.853516 C 14.048516 23.658516 14.048516 23.341484 13.853516 23.146484 L 13.849609 23.142578 C 13.943172 22.947041 14 22.730812 14 22.5 L 14 19.5 C 14 18.673 13.327 18 12.5 18 L 11.5 18 z M 16.5 18 C 16.224 18 16 18.224 16 18.5 L 16 23.5 C 16 23.776 16.224 24 16.5 24 L 19.5 24 C 19.776 24 20 23.776 20 23.5 C 20 23.224 19.776 23 19.5 23 L 17 23 L 17 18.5 C 17 18.224 16.776 18 16.5 18 z M 11.5 19 L 12.5 19 C 12.775 19 13 19.224 13 19.5 L 13 22.292969 L 12.853516 22.146484 C 12.658516 21.951484 12.341484 21.951484 12.146484 22.146484 C 11.951484 22.341484 11.951484 22.658516 12.146484 22.853516 L 12.292969 23 L 11.5 23 C 11.225 23 11 22.776 11 22.5 L 11 19.5 C 11 19.224 11.225 19 11.5 19 z"/></svg>